<?xml version="1.0" encoding="utf-8"?>
<!-- Generator: Adobe Illustrator 19.2.1, SVG Export Plug-In . SVG Version: 6.00 Build 0)  -->
<svg version="1.1" id="Layer_1" xmlns="http://www.w3.org/2000/svg" xmlns:xlink="http://www.w3.org/1999/xlink" x="0px" y="0px"
	 viewBox="0 0 214.7 237.2" style="enable-background:new 0 0 214.7 237.2;" xml:space="preserve">
<style type="text/css">
	.st0{fill:#FFFFFF;}
	.st1{clip-path:url(#SVGID_2_);}
	.st2{fill:#068C9E;stroke:#068C9E;stroke-width:1.0104;stroke-miterlimit:10;}
	.st3{clip-path:url(#SVGID_4_);}
	.st4{fill:#5EA8A8;stroke:#5EA8A8;stroke-width:1.0083;stroke-miterlimit:10;}
	.st5{clip-path:url(#SVGID_6_);fill:#E1B227;}
	.st6{clip-path:url(#SVGID_8_);fill:#010101;}
	.st7{clip-path:url(#SVGID_10_);fill:#010101;}
	.st8{clip-path:url(#SVGID_12_);fill:#010101;}
	.st9{clip-path:url(#SVGID_14_);fill:#010101;}
	.st10{clip-path:url(#SVGID_16_);fill:#010101;}
	.st11{clip-path:url(#SVGID_18_);fill:#010101;}
	.st12{clip-path:url(#SVGID_20_);fill:#010101;}
	.st13{clip-path:url(#SVGID_22_);fill:#010101;}
	.st14{clip-path:url(#SVGID_24_);fill:#010101;}
	.st15{clip-path:url(#SVGID_26_);fill:#010101;}
	.st16{clip-path:url(#SVGID_28_);fill:#010101;}
	.st17{clip-path:url(#SVGID_30_);fill:#FFFFFF;}
	.st18{clip-path:url(#SVGID_32_);fill:#010101;}
	.st19{clip-path:url(#SVGID_34_);fill:#032A45;}
	.st20{clip-path:url(#SVGID_36_);fill:#010101;}
	.st21{clip-path:url(#SVGID_38_);fill:#010101;}
	.st22{clip-path:url(#SVGID_40_);fill:#010101;}
	.st23{clip-path:url(#SVGID_42_);fill:#DBC1AF;}
	.st24{clip-path:url(#SVGID_44_);fill:#032A45;}
	.st25{clip-path:url(#SVGID_46_);fill:#088AB5;}
	.st26{clip-path:url(#SVGID_48_);fill:#2C2E2D;}
	.st27{clip-path:url(#SVGID_50_);}
	.st28{fill:#DBC1AF;}
	.st29{clip-path:url(#SVGID_52_);fill:#DBC1AF;}
	.st30{clip-path:url(#SVGID_54_);fill:#088AB5;}
	.st31{clip-path:url(#SVGID_56_);}
	.st32{fill:#392A1F;}
	.st33{opacity:0.79;}
	.st34{fill:none;stroke:#DBDCDC;stroke-width:0.4;stroke-miterlimit:10;}
</style>
<circle class="st0" cx="108.3" cy="131" r="99.5"/>
<g>
	<defs>
		<circle id="SVGID_1_" cx="108.3" cy="131" r="92.6"/>
	</defs>
	<clipPath id="SVGID_2_">
		<use xlink:href="#SVGID_1_"  style="overflow:visible;"/>
	</clipPath>
	<g class="st1">
		<rect x="23.2" y="46.2" class="st2" width="9.4" height="9.3"/>
		<rect x="32.6" y="46.2" class="st2" width="9.4" height="9.3"/>
		<rect x="42" y="46.2" class="st2" width="9.4" height="9.3"/>
		<rect x="51.4" y="46.2" class="st2" width="9.4" height="9.3"/>
		<rect x="60.8" y="46.2" class="st2" width="9.4" height="9.3"/>
		<rect x="70.1" y="46.2" class="st2" width="9.4" height="9.3"/>
		<rect x="79.5" y="46.2" class="st2" width="9.4" height="9.3"/>
		<rect x="88.9" y="46.2" class="st2" width="9.4" height="9.3"/>
		<rect x="98.3" y="46.2" class="st2" width="9.4" height="9.3"/>
		<rect x="107.7" y="46.2" class="st2" width="9.4" height="9.3"/>
		<rect x="117.1" y="46.2" class="st2" width="9.4" height="9.3"/>
		<rect x="126.5" y="46.2" class="st2" width="9.4" height="9.3"/>
		<rect x="135.9" y="46.2" class="st2" width="9.4" height="9.3"/>
		<rect x="145.3" y="46.2" class="st2" width="9.4" height="9.3"/>
		<rect x="154.7" y="46.2" class="st2" width="9.4" height="9.3"/>
		<rect x="164.1" y="46.2" class="st2" width="9.4" height="9.3"/>
		<rect x="173.5" y="46.2" class="st2" width="9.4" height="9.3"/>
		<rect x="182.9" y="46.2" class="st2" width="9.4" height="9.3"/>
		<rect x="23.2" y="55.5" class="st2" width="9.4" height="9.3"/>
		<rect x="32.6" y="55.5" class="st2" width="9.4" height="9.3"/>
		<rect x="42" y="55.5" class="st2" width="9.4" height="9.3"/>
		<rect x="51.4" y="55.5" class="st2" width="9.4" height="9.3"/>
		<rect x="60.8" y="55.5" class="st2" width="9.4" height="9.3"/>
		<rect x="70.1" y="55.5" class="st2" width="9.4" height="9.3"/>
		<rect x="79.5" y="55.5" class="st2" width="9.4" height="9.3"/>
		<rect x="88.9" y="55.5" class="st2" width="9.4" height="9.3"/>
		<rect x="98.3" y="55.5" class="st2" width="9.4" height="9.3"/>
		<rect x="107.7" y="55.5" class="st2" width="9.4" height="9.3"/>
		<rect x="117.1" y="55.5" class="st2" width="9.4" height="9.3"/>
		<rect x="126.5" y="55.5" class="st2" width="9.4" height="9.3"/>
		<rect x="135.9" y="55.5" class="st2" width="9.4" height="9.3"/>
		<rect x="145.3" y="55.5" class="st2" width="9.4" height="9.3"/>
		<rect x="154.7" y="55.5" class="st2" width="9.4" height="9.3"/>
		<rect x="164.1" y="55.5" class="st2" width="9.4" height="9.3"/>
		<rect x="173.5" y="55.5" class="st2" width="9.4" height="9.3"/>
		<rect x="182.9" y="55.5" class="st2" width="9.4" height="9.3"/>
		<rect x="23.2" y="64.9" class="st2" width="9.4" height="9.3"/>
		<rect x="32.6" y="64.9" class="st2" width="9.4" height="9.3"/>
		<rect x="42" y="64.9" class="st2" width="9.4" height="9.3"/>
		<rect x="51.4" y="64.9" class="st2" width="9.4" height="9.3"/>
		<rect x="60.8" y="64.9" class="st2" width="9.4" height="9.3"/>
		<rect x="70.1" y="64.9" class="st2" width="9.4" height="9.3"/>
		<rect x="79.5" y="64.9" class="st2" width="9.4" height="9.3"/>
		<rect x="88.9" y="64.9" class="st2" width="9.4" height="9.3"/>
		<rect x="98.3" y="64.9" class="st2" width="9.4" height="9.3"/>
		<rect x="107.7" y="64.9" class="st2" width="9.4" height="9.3"/>
		<rect x="117.1" y="64.9" class="st2" width="9.4" height="9.3"/>
		<rect x="126.5" y="64.9" class="st2" width="9.4" height="9.3"/>
		<rect x="135.9" y="64.9" class="st2" width="9.4" height="9.3"/>
		<rect x="145.3" y="64.9" class="st2" width="9.4" height="9.3"/>
		<rect x="154.7" y="64.9" class="st2" width="9.4" height="9.3"/>
		<rect x="164.1" y="64.9" class="st2" width="9.4" height="9.3"/>
		<rect x="173.5" y="64.9" class="st2" width="9.4" height="9.3"/>
		<rect x="182.9" y="64.9" class="st2" width="9.4" height="9.3"/>
		<rect x="23.2" y="74.2" class="st2" width="9.4" height="9.3"/>
		<rect x="32.6" y="74.2" class="st2" width="9.4" height="9.3"/>
		<rect x="42" y="74.2" class="st2" width="9.4" height="9.3"/>
		<rect x="51.4" y="74.2" class="st2" width="9.4" height="9.3"/>
		<rect x="60.8" y="74.2" class="st2" width="9.4" height="9.3"/>
		<rect x="70.1" y="74.2" class="st2" width="9.4" height="9.3"/>
		<rect x="79.5" y="74.2" class="st2" width="9.4" height="9.3"/>
		<rect x="88.9" y="74.2" class="st2" width="9.4" height="9.3"/>
		<rect x="98.3" y="74.2" class="st2" width="9.4" height="9.3"/>
		<rect x="107.7" y="74.2" class="st2" width="9.4" height="9.3"/>
		<rect x="117.1" y="74.2" class="st2" width="9.4" height="9.3"/>
		<rect x="126.5" y="74.2" class="st2" width="9.4" height="9.3"/>
		<rect x="135.9" y="74.2" class="st2" width="9.4" height="9.3"/>
		<rect x="145.3" y="74.2" class="st2" width="9.4" height="9.3"/>
		<rect x="154.7" y="74.2" class="st2" width="9.4" height="9.3"/>
		<rect x="164.1" y="74.2" class="st2" width="9.4" height="9.3"/>
		<rect x="173.5" y="74.2" class="st2" width="9.4" height="9.3"/>
		<rect x="182.9" y="74.2" class="st2" width="9.4" height="9.3"/>
		<rect x="23.2" y="83.5" class="st2" width="9.4" height="9.3"/>
		<rect x="32.6" y="83.5" class="st2" width="9.4" height="9.3"/>
		<rect x="42" y="83.5" class="st2" width="9.4" height="9.3"/>
		<rect x="51.4" y="83.5" class="st2" width="9.4" height="9.3"/>
		<rect x="60.8" y="83.5" class="st2" width="9.4" height="9.3"/>
		<rect x="70.1" y="83.5" class="st2" width="9.4" height="9.3"/>
		<rect x="79.5" y="83.5" class="st2" width="9.4" height="9.3"/>
		<rect x="88.9" y="83.5" class="st2" width="9.4" height="9.3"/>
		<rect x="98.3" y="83.5" class="st2" width="9.4" height="9.3"/>
		<rect x="107.7" y="83.5" class="st2" width="9.4" height="9.3"/>
		<rect x="117.1" y="83.5" class="st2" width="9.4" height="9.3"/>
		<rect x="126.5" y="83.5" class="st2" width="9.4" height="9.3"/>
		<rect x="135.9" y="83.5" class="st2" width="9.4" height="9.3"/>
		<rect x="145.3" y="83.5" class="st2" width="9.4" height="9.3"/>
		<rect x="154.7" y="83.5" class="st2" width="9.4" height="9.3"/>
		<rect x="164.1" y="83.5" class="st2" width="9.4" height="9.3"/>
		<rect x="173.5" y="83.5" class="st2" width="9.4" height="9.3"/>
		<rect x="182.9" y="83.5" class="st2" width="9.4" height="9.3"/>
		<rect x="23.2" y="92.9" class="st2" width="9.4" height="9.3"/>
		<rect x="32.6" y="92.9" class="st2" width="9.4" height="9.3"/>
		<rect x="42" y="92.9" class="st2" width="9.4" height="9.3"/>
		<rect x="51.4" y="92.9" class="st2" width="9.4" height="9.3"/>
		<rect x="60.8" y="92.9" class="st2" width="9.4" height="9.3"/>
		<rect x="70.1" y="92.9" class="st2" width="9.4" height="9.3"/>
		<rect x="79.5" y="92.9" class="st2" width="9.4" height="9.3"/>
		<rect x="88.9" y="92.9" class="st2" width="9.4" height="9.3"/>
		<rect x="98.3" y="92.9" class="st2" width="9.4" height="9.3"/>
		<rect x="107.7" y="92.9" class="st2" width="9.4" height="9.3"/>
		<rect x="117.1" y="92.9" class="st2" width="9.4" height="9.3"/>
		<rect x="126.5" y="92.9" class="st2" width="9.4" height="9.3"/>
		<rect x="135.9" y="92.9" class="st2" width="9.4" height="9.3"/>
		<rect x="145.3" y="92.9" class="st2" width="9.4" height="9.3"/>
		<rect x="154.7" y="92.9" class="st2" width="9.4" height="9.3"/>
		<rect x="164.1" y="92.9" class="st2" width="9.4" height="9.3"/>
		<rect x="173.5" y="92.9" class="st2" width="9.4" height="9.3"/>
		<rect x="182.9" y="92.9" class="st2" width="9.4" height="9.3"/>
		<rect x="23.2" y="102.2" class="st2" width="9.4" height="9.3"/>
		<rect x="32.6" y="102.2" class="st2" width="9.4" height="9.3"/>
		<rect x="42" y="102.2" class="st2" width="9.4" height="9.3"/>
		<rect x="51.4" y="102.2" class="st2" width="9.4" height="9.3"/>
		<rect x="60.8" y="102.2" class="st2" width="9.4" height="9.3"/>
		<rect x="70.1" y="102.2" class="st2" width="9.4" height="9.3"/>
		<rect x="79.5" y="102.2" class="st2" width="9.4" height="9.3"/>
		<rect x="88.9" y="102.2" class="st2" width="9.4" height="9.3"/>
		<rect x="98.3" y="102.2" class="st2" width="9.4" height="9.3"/>
		<rect x="107.7" y="102.2" class="st2" width="9.4" height="9.3"/>
		<rect x="117.1" y="102.2" class="st2" width="9.4" height="9.3"/>
		<rect x="126.5" y="102.2" class="st2" width="9.4" height="9.3"/>
		<rect x="135.9" y="102.2" class="st2" width="9.4" height="9.3"/>
		<rect x="145.3" y="102.2" class="st2" width="9.4" height="9.3"/>
		<rect x="154.7" y="102.2" class="st2" width="9.4" height="9.3"/>
		<rect x="164.1" y="102.2" class="st2" width="9.4" height="9.3"/>
		<rect x="173.5" y="102.2" class="st2" width="9.4" height="9.3"/>
		<rect x="182.9" y="102.2" class="st2" width="9.4" height="9.3"/>
		<rect x="23.2" y="111.5" class="st2" width="9.4" height="9.3"/>
		<rect x="32.6" y="111.5" class="st2" width="9.4" height="9.3"/>
		<rect x="42" y="111.5" class="st2" width="9.4" height="9.3"/>
		<rect x="51.4" y="111.5" class="st2" width="9.4" height="9.3"/>
		<rect x="60.8" y="111.5" class="st2" width="9.4" height="9.3"/>
		<rect x="70.1" y="111.5" class="st2" width="9.4" height="9.3"/>
		<rect x="79.5" y="111.5" class="st2" width="9.4" height="9.3"/>
		<rect x="88.9" y="111.5" class="st2" width="9.4" height="9.3"/>
		<rect x="98.3" y="111.5" class="st2" width="9.4" height="9.3"/>
		<rect x="107.7" y="111.5" class="st2" width="9.4" height="9.3"/>
		<rect x="117.1" y="111.5" class="st2" width="9.4" height="9.3"/>
		<rect x="126.5" y="111.5" class="st2" width="9.4" height="9.3"/>
		<rect x="135.9" y="111.5" class="st2" width="9.4" height="9.3"/>
		<rect x="145.3" y="111.5" class="st2" width="9.4" height="9.3"/>
		<rect x="154.7" y="111.5" class="st2" width="9.4" height="9.3"/>
		<rect x="164.1" y="111.5" class="st2" width="9.4" height="9.3"/>
		<rect x="173.5" y="111.5" class="st2" width="9.4" height="9.3"/>
		<rect x="182.9" y="111.5" class="st2" width="9.4" height="9.3"/>
		<rect x="23.2" y="120.9" class="st2" width="9.4" height="9.3"/>
		<rect x="32.6" y="120.9" class="st2" width="9.4" height="9.3"/>
		<rect x="42" y="120.9" class="st2" width="9.4" height="9.3"/>
		<rect x="51.4" y="120.9" class="st2" width="9.4" height="9.3"/>
		<rect x="60.8" y="120.9" class="st2" width="9.4" height="9.3"/>
		<rect x="70.1" y="120.9" class="st2" width="9.4" height="9.3"/>
		<rect x="79.5" y="120.9" class="st2" width="9.4" height="9.3"/>
		<rect x="88.9" y="120.9" class="st2" width="9.4" height="9.3"/>
		<rect x="98.3" y="120.9" class="st2" width="9.4" height="9.3"/>
		<rect x="107.7" y="120.9" class="st2" width="9.4" height="9.3"/>
		<rect x="117.1" y="120.9" class="st2" width="9.4" height="9.3"/>
		<rect x="126.5" y="120.9" class="st2" width="9.4" height="9.3"/>
		<rect x="135.9" y="120.9" class="st2" width="9.4" height="9.3"/>
		<rect x="145.3" y="120.9" class="st2" width="9.4" height="9.3"/>
		<rect x="154.7" y="120.9" class="st2" width="9.4" height="9.3"/>
		<rect x="164.1" y="120.9" class="st2" width="9.4" height="9.3"/>
		<rect x="173.5" y="120.9" class="st2" width="9.4" height="9.3"/>
		<rect x="182.9" y="120.9" class="st2" width="9.4" height="9.3"/>
		<rect x="23.2" y="130.2" class="st2" width="9.4" height="9.3"/>
		<rect x="32.6" y="130.2" class="st2" width="9.4" height="9.3"/>
		<rect x="42" y="130.2" class="st2" width="9.4" height="9.3"/>
		<rect x="51.4" y="130.2" class="st2" width="9.4" height="9.3"/>
		<rect x="60.8" y="130.2" class="st2" width="9.4" height="9.3"/>
		<rect x="70.1" y="130.2" class="st2" width="9.4" height="9.3"/>
		<rect x="79.5" y="130.2" class="st2" width="9.4" height="9.3"/>
		<rect x="88.9" y="130.2" class="st2" width="9.4" height="9.3"/>
		<rect x="98.3" y="130.2" class="st2" width="9.4" height="9.3"/>
		<rect x="107.7" y="130.2" class="st2" width="9.4" height="9.3"/>
		<rect x="117.1" y="130.2" class="st2" width="9.4" height="9.3"/>
		<rect x="126.5" y="130.2" class="st2" width="9.4" height="9.3"/>
		<rect x="135.9" y="130.2" class="st2" width="9.4" height="9.3"/>
		<rect x="145.3" y="130.2" class="st2" width="9.4" height="9.3"/>
		<rect x="154.7" y="130.2" class="st2" width="9.4" height="9.3"/>
		<rect x="164.1" y="130.2" class="st2" width="9.4" height="9.3"/>
		<rect x="173.5" y="130.2" class="st2" width="9.4" height="9.3"/>
		<rect x="182.9" y="130.2" class="st2" width="9.4" height="9.3"/>
		<rect x="23.2" y="139.6" class="st2" width="9.4" height="9.3"/>
		<rect x="32.6" y="139.6" class="st2" width="9.4" height="9.3"/>
		<rect x="42" y="139.6" class="st2" width="9.4" height="9.3"/>
		<rect x="51.4" y="139.6" class="st2" width="9.4" height="9.3"/>
		<rect x="60.8" y="139.6" class="st2" width="9.4" height="9.3"/>
		<rect x="70.1" y="139.6" class="st2" width="9.4" height="9.3"/>
		<rect x="79.5" y="139.6" class="st2" width="9.4" height="9.3"/>
		<rect x="88.9" y="139.6" class="st2" width="9.4" height="9.3"/>
		<rect x="98.3" y="139.6" class="st2" width="9.4" height="9.3"/>
		<rect x="107.7" y="139.6" class="st2" width="9.4" height="9.3"/>
		<rect x="117.1" y="139.6" class="st2" width="9.4" height="9.3"/>
		<rect x="126.5" y="139.6" class="st2" width="9.4" height="9.3"/>
		<rect x="135.9" y="139.6" class="st2" width="9.4" height="9.3"/>
		<rect x="145.3" y="139.6" class="st2" width="9.4" height="9.3"/>
		<rect x="154.7" y="139.6" class="st2" width="9.4" height="9.3"/>
		<rect x="164.1" y="139.6" class="st2" width="9.4" height="9.3"/>
		<rect x="173.5" y="139.6" class="st2" width="9.4" height="9.3"/>
		<rect x="182.9" y="139.6" class="st2" width="9.4" height="9.3"/>
		<rect x="23.2" y="148.9" class="st2" width="9.4" height="9.3"/>
		<rect x="32.6" y="148.9" class="st2" width="9.4" height="9.3"/>
		<rect x="42" y="148.9" class="st2" width="9.4" height="9.3"/>
		<rect x="51.4" y="148.9" class="st2" width="9.4" height="9.3"/>
		<rect x="60.8" y="148.9" class="st2" width="9.4" height="9.3"/>
		<rect x="70.1" y="148.9" class="st2" width="9.4" height="9.3"/>
		<rect x="79.5" y="148.9" class="st2" width="9.4" height="9.3"/>
		<rect x="88.9" y="148.9" class="st2" width="9.4" height="9.3"/>
		<rect x="98.3" y="148.9" class="st2" width="9.4" height="9.3"/>
		<rect x="107.7" y="148.9" class="st2" width="9.4" height="9.3"/>
		<rect x="117.1" y="148.9" class="st2" width="9.4" height="9.3"/>
		<rect x="126.5" y="148.9" class="st2" width="9.4" height="9.3"/>
		<rect x="135.9" y="148.9" class="st2" width="9.4" height="9.3"/>
		<rect x="145.3" y="148.9" class="st2" width="9.4" height="9.3"/>
		<rect x="154.7" y="148.9" class="st2" width="9.4" height="9.3"/>
		<rect x="164.1" y="148.9" class="st2" width="9.4" height="9.3"/>
		<rect x="173.5" y="148.9" class="st2" width="9.4" height="9.3"/>
		<rect x="182.9" y="148.9" class="st2" width="9.4" height="9.3"/>
		<rect x="23.2" y="158.2" class="st2" width="9.4" height="9.3"/>
		<rect x="32.6" y="158.2" class="st2" width="9.4" height="9.3"/>
		<rect x="42" y="158.2" class="st2" width="9.4" height="9.3"/>
		<rect x="51.4" y="158.2" class="st2" width="9.4" height="9.3"/>
		<rect x="60.8" y="158.2" class="st2" width="9.4" height="9.3"/>
		<rect x="70.1" y="158.2" class="st2" width="9.4" height="9.3"/>
		<rect x="79.5" y="158.2" class="st2" width="9.4" height="9.3"/>
		<rect x="88.9" y="158.2" class="st2" width="9.4" height="9.3"/>
		<rect x="98.3" y="158.2" class="st2" width="9.4" height="9.3"/>
		<rect x="107.7" y="158.2" class="st2" width="9.4" height="9.3"/>
		<rect x="117.1" y="158.2" class="st2" width="9.4" height="9.3"/>
		<rect x="126.5" y="158.2" class="st2" width="9.4" height="9.3"/>
		<rect x="135.9" y="158.2" class="st2" width="9.4" height="9.3"/>
		<rect x="145.3" y="158.2" class="st2" width="9.4" height="9.3"/>
		<rect x="154.7" y="158.2" class="st2" width="9.4" height="9.3"/>
		<rect x="164.1" y="158.2" class="st2" width="9.4" height="9.3"/>
		<rect x="173.5" y="158.2" class="st2" width="9.4" height="9.3"/>
		<rect x="182.9" y="158.2" class="st2" width="9.4" height="9.3"/>
		<rect x="23.2" y="167.6" class="st2" width="9.4" height="9.3"/>
		<rect x="32.6" y="167.6" class="st2" width="9.4" height="9.3"/>
		<rect x="42" y="167.6" class="st2" width="9.4" height="9.3"/>
		<rect x="51.4" y="167.6" class="st2" width="9.4" height="9.3"/>
		<rect x="60.8" y="167.6" class="st2" width="9.4" height="9.3"/>
		<rect x="70.1" y="167.6" class="st2" width="9.4" height="9.3"/>
		<rect x="79.5" y="167.6" class="st2" width="9.4" height="9.3"/>
		<rect x="88.9" y="167.6" class="st2" width="9.4" height="9.3"/>
		<rect x="98.3" y="167.6" class="st2" width="9.4" height="9.3"/>
		<rect x="107.7" y="167.6" class="st2" width="9.4" height="9.3"/>
		<rect x="117.1" y="167.6" class="st2" width="9.4" height="9.3"/>
		<rect x="126.5" y="167.6" class="st2" width="9.4" height="9.3"/>
		<rect x="135.9" y="167.6" class="st2" width="9.4" height="9.3"/>
		<rect x="145.3" y="167.6" class="st2" width="9.4" height="9.3"/>
		<rect x="154.7" y="167.6" class="st2" width="9.4" height="9.3"/>
		<rect x="164.1" y="167.6" class="st2" width="9.4" height="9.3"/>
		<rect x="173.5" y="167.6" class="st2" width="9.4" height="9.3"/>
		<rect x="182.9" y="167.6" class="st2" width="9.4" height="9.3"/>
		<rect x="23.2" y="176.9" class="st2" width="9.4" height="9.3"/>
		<rect x="32.6" y="176.9" class="st2" width="9.4" height="9.3"/>
		<rect x="42" y="176.9" class="st2" width="9.4" height="9.3"/>
		<rect x="51.4" y="176.9" class="st2" width="9.4" height="9.3"/>
		<rect x="60.8" y="176.9" class="st2" width="9.4" height="9.3"/>
		<rect x="70.1" y="176.9" class="st2" width="9.4" height="9.3"/>
		<rect x="79.5" y="176.9" class="st2" width="9.4" height="9.3"/>
		<rect x="88.9" y="176.9" class="st2" width="9.4" height="9.3"/>
		<rect x="98.3" y="176.9" class="st2" width="9.4" height="9.3"/>
		<rect x="107.7" y="176.9" class="st2" width="9.4" height="9.3"/>
		<rect x="117.1" y="176.9" class="st2" width="9.4" height="9.3"/>
		<rect x="126.5" y="176.9" class="st2" width="9.4" height="9.3"/>
		<rect x="135.9" y="176.9" class="st2" width="9.4" height="9.3"/>
		<rect x="145.3" y="176.9" class="st2" width="9.4" height="9.3"/>
		<rect x="154.7" y="176.9" class="st2" width="9.4" height="9.3"/>
		<rect x="164.1" y="176.9" class="st2" width="9.4" height="9.3"/>
		<rect x="173.5" y="176.9" class="st2" width="9.4" height="9.3"/>
		<rect x="182.9" y="176.9" class="st2" width="9.4" height="9.3"/>
		<rect x="23.2" y="186.2" class="st2" width="9.4" height="9.3"/>
		<rect x="32.6" y="186.2" class="st2" width="9.4" height="9.3"/>
		<rect x="42" y="186.2" class="st2" width="9.4" height="9.3"/>
		<rect x="51.4" y="186.2" class="st2" width="9.4" height="9.3"/>
		<rect x="60.8" y="186.2" class="st2" width="9.4" height="9.3"/>
		<rect x="70.1" y="186.2" class="st2" width="9.4" height="9.3"/>
		<rect x="79.5" y="186.2" class="st2" width="9.4" height="9.3"/>
		<rect x="88.9" y="186.2" class="st2" width="9.4" height="9.3"/>
		<rect x="98.3" y="186.2" class="st2" width="9.4" height="9.3"/>
		<rect x="107.7" y="186.2" class="st2" width="9.4" height="9.3"/>
		<rect x="117.1" y="186.2" class="st2" width="9.4" height="9.3"/>
		<rect x="126.5" y="186.2" class="st2" width="9.4" height="9.3"/>
		<rect x="135.9" y="186.2" class="st2" width="9.4" height="9.3"/>
		<rect x="145.3" y="186.2" class="st2" width="9.4" height="9.3"/>
		<rect x="154.7" y="186.2" class="st2" width="9.4" height="9.3"/>
		<rect x="164.1" y="186.2" class="st2" width="9.4" height="9.3"/>
		<rect x="173.5" y="186.2" class="st2" width="9.4" height="9.3"/>
		<rect x="182.9" y="186.2" class="st2" width="9.4" height="9.3"/>
		<rect x="23.2" y="195.6" class="st2" width="9.4" height="9.3"/>
		<rect x="32.6" y="195.6" class="st2" width="9.4" height="9.3"/>
		<rect x="42" y="195.6" class="st2" width="9.4" height="9.3"/>
		<rect x="51.4" y="195.6" class="st2" width="9.4" height="9.3"/>
		<rect x="60.8" y="195.6" class="st2" width="9.4" height="9.3"/>
		<rect x="70.1" y="195.6" class="st2" width="9.4" height="9.3"/>
		<rect x="79.5" y="195.6" class="st2" width="9.4" height="9.3"/>
		<rect x="88.9" y="195.6" class="st2" width="9.4" height="9.3"/>
		<rect x="98.3" y="195.6" class="st2" width="9.4" height="9.3"/>
		<rect x="107.7" y="195.6" class="st2" width="9.4" height="9.3"/>
		<rect x="117.1" y="195.6" class="st2" width="9.4" height="9.3"/>
		<rect x="126.5" y="195.6" class="st2" width="9.4" height="9.3"/>
		<rect x="135.9" y="195.6" class="st2" width="9.4" height="9.3"/>
		<rect x="145.3" y="195.6" class="st2" width="9.4" height="9.3"/>
		<rect x="154.7" y="195.6" class="st2" width="9.4" height="9.3"/>
		<rect x="164.1" y="195.6" class="st2" width="9.4" height="9.3"/>
		<rect x="173.5" y="195.6" class="st2" width="9.4" height="9.3"/>
		<rect x="182.9" y="195.6" class="st2" width="9.4" height="9.3"/>
		<rect x="23.2" y="204.9" class="st2" width="9.4" height="9.3"/>
		<rect x="32.6" y="204.9" class="st2" width="9.4" height="9.3"/>
		<rect x="42" y="204.9" class="st2" width="9.4" height="9.3"/>
		<rect x="51.4" y="204.9" class="st2" width="9.4" height="9.3"/>
		<rect x="60.8" y="204.9" class="st2" width="9.4" height="9.3"/>
		<rect x="70.1" y="204.9" class="st2" width="9.4" height="9.3"/>
		<rect x="79.5" y="204.9" class="st2" width="9.4" height="9.3"/>
		<rect x="88.9" y="204.9" class="st2" width="9.4" height="9.3"/>
		<rect x="98.3" y="204.9" class="st2" width="9.4" height="9.3"/>
		<rect x="107.7" y="204.9" class="st2" width="9.4" height="9.3"/>
		<rect x="117.1" y="204.9" class="st2" width="9.4" height="9.3"/>
		<rect x="126.5" y="204.9" class="st2" width="9.4" height="9.3"/>
		<rect x="135.9" y="204.9" class="st2" width="9.4" height="9.3"/>
		<rect x="145.3" y="204.9" class="st2" width="9.4" height="9.3"/>
		<rect x="154.7" y="204.9" class="st2" width="9.4" height="9.3"/>
		<rect x="164.1" y="204.9" class="st2" width="9.4" height="9.3"/>
		<rect x="173.5" y="204.9" class="st2" width="9.4" height="9.3"/>
		<rect x="182.9" y="204.9" class="st2" width="9.4" height="9.3"/>
		<rect x="42" y="214.2" class="st2" width="9.4" height="9.3"/>
		<rect x="51.4" y="214.2" class="st2" width="9.4" height="9.3"/>
		<rect x="60.8" y="214.2" class="st2" width="9.4" height="9.3"/>
		<rect x="70.1" y="214.2" class="st2" width="9.4" height="9.3"/>
		<rect x="79.5" y="214.2" class="st2" width="9.4" height="9.3"/>
		<rect x="88.9" y="214.2" class="st2" width="9.4" height="9.3"/>
		<rect x="98.3" y="214.2" class="st2" width="9.4" height="9.3"/>
		<rect x="107.7" y="214.2" class="st2" width="9.4" height="9.3"/>
		<rect x="117.1" y="214.2" class="st2" width="9.4" height="9.3"/>
		<rect x="126.5" y="214.2" class="st2" width="9.4" height="9.3"/>
		<rect x="135.9" y="214.2" class="st2" width="9.4" height="9.3"/>
		<rect x="145.3" y="214.2" class="st2" width="9.4" height="9.3"/>
		<rect x="154.7" y="214.2" class="st2" width="9.4" height="9.3"/>
		<rect x="164.1" y="214.2" class="st2" width="9.4" height="9.3"/>
	</g>
</g>
<g>
	<defs>
		<circle id="SVGID_3_" cx="108.3" cy="131" r="92.6"/>
	</defs>
	<clipPath id="SVGID_4_">
		<use xlink:href="#SVGID_3_"  style="overflow:visible;"/>
	</clipPath>
	<g class="st3">
		<rect x="13.8" y="36.8" class="st4" width="9.4" height="9.3"/>
		<rect x="23.1" y="36.8" class="st4" width="9.4" height="9.3"/>
		<rect x="32.5" y="36.8" class="st4" width="9.4" height="9.3"/>
		<rect x="41.8" y="36.8" class="st4" width="9.4" height="9.3"/>
		<rect x="51.2" y="36.8" class="st4" width="9.4" height="9.3"/>
		<rect x="60.6" y="36.8" class="st4" width="9.4" height="9.3"/>
		<rect x="69.9" y="36.8" class="st4" width="9.4" height="9.3"/>
		<rect x="79.3" y="36.8" class="st4" width="9.4" height="9.3"/>
		<rect x="88.6" y="36.8" class="st4" width="9.4" height="9.3"/>
		<rect x="98" y="36.8" class="st4" width="9.4" height="9.3"/>
		<rect x="107.3" y="36.8" class="st4" width="9.4" height="9.3"/>
		<rect x="116.7" y="36.8" class="st4" width="9.4" height="9.3"/>
		<rect x="126" y="36.8" class="st4" width="9.4" height="9.3"/>
		<rect x="135.4" y="36.8" class="st4" width="9.4" height="9.3"/>
		<rect x="144.7" y="36.8" class="st4" width="9.4" height="9.3"/>
		<rect x="154.1" y="36.8" class="st4" width="9.4" height="9.3"/>
		<rect x="163.5" y="36.8" class="st4" width="9.4" height="9.3"/>
		<rect x="172.8" y="36.8" class="st4" width="9.4" height="9.3"/>
		<rect x="182.2" y="36.8" class="st4" width="9.4" height="9.3"/>
		<rect x="191.5" y="36.8" class="st4" width="9.4" height="9.3"/>
		<rect x="13.8" y="46.2" class="st4" width="9.4" height="9.3"/>
		<rect x="191.5" y="46.2" class="st4" width="9.4" height="9.3"/>
		<rect x="13.8" y="55.5" class="st4" width="9.4" height="9.3"/>
		<rect x="191.5" y="55.5" class="st4" width="9.4" height="9.3"/>
		<rect x="13.8" y="64.9" class="st4" width="9.4" height="9.3"/>
		<rect x="191.5" y="64.9" class="st4" width="9.4" height="9.3"/>
		<rect x="13.8" y="74.2" class="st4" width="9.4" height="9.3"/>
		<rect x="191.5" y="74.2" class="st4" width="9.4" height="9.3"/>
		<rect x="13.8" y="83.5" class="st4" width="9.4" height="9.3"/>
		<rect x="191.5" y="83.5" class="st4" width="9.4" height="9.3"/>
		<rect x="13.8" y="92.9" class="st4" width="9.4" height="9.3"/>
		<rect x="191.5" y="92.9" class="st4" width="9.4" height="9.3"/>
		<rect x="13.8" y="102.2" class="st4" width="9.4" height="9.3"/>
		<rect x="191.5" y="102.2" class="st4" width="9.4" height="9.3"/>
		<rect x="13.8" y="111.5" class="st4" width="9.4" height="9.3"/>
		<rect x="191.5" y="111.5" class="st4" width="9.4" height="9.3"/>
		<rect x="13.8" y="120.9" class="st4" width="9.4" height="9.3"/>
		<rect x="191.5" y="120.9" class="st4" width="9.4" height="9.3"/>
		<rect x="13.8" y="130.2" class="st4" width="9.4" height="9.3"/>
		<rect x="191.5" y="130.2" class="st4" width="9.4" height="9.3"/>
		<rect x="13.8" y="139.6" class="st4" width="9.4" height="9.3"/>
		<rect x="191.5" y="139.6" class="st4" width="9.4" height="9.3"/>
		<rect x="13.8" y="148.9" class="st4" width="9.4" height="9.3"/>
		<rect x="191.5" y="148.9" class="st4" width="9.4" height="9.3"/>
		<rect x="13.8" y="158.2" class="st4" width="9.4" height="9.3"/>
		<rect x="191.5" y="158.2" class="st4" width="9.4" height="9.3"/>
		<rect x="13.8" y="167.6" class="st4" width="9.4" height="9.3"/>
		<rect x="191.5" y="167.6" class="st4" width="9.4" height="9.3"/>
		<rect x="13.8" y="176.9" class="st4" width="9.4" height="9.3"/>
		<rect x="191.5" y="176.9" class="st4" width="9.4" height="9.3"/>
		<rect x="13.8" y="186.2" class="st4" width="9.4" height="9.3"/>
		<rect x="191.5" y="186.2" class="st4" width="9.4" height="9.3"/>
		<rect x="13.8" y="195.6" class="st4" width="9.4" height="9.3"/>
		<rect x="191.5" y="195.6" class="st4" width="9.4" height="9.3"/>
		<rect x="191.5" y="204.9" class="st4" width="9.4" height="9.3"/>
		<rect x="23.1" y="214.2" class="st4" width="9.4" height="9.3"/>
		<rect x="32.5" y="214.2" class="st4" width="9.4" height="9.3"/>
		<rect x="172.8" y="214.2" class="st4" width="9.4" height="9.3"/>
		<rect x="182.2" y="214.2" class="st4" width="9.4" height="9.3"/>
		<rect x="191.5" y="214.2" class="st4" width="9.4" height="9.3"/>
		<rect x="13.8" y="204.9" class="st4" width="9.4" height="9.3"/>
		<rect x="13.8" y="214.2" class="st4" width="9.4" height="9.3"/>
	</g>
</g>
<g>
	<defs>
		<circle id="SVGID_5_" cx="108.3" cy="131" r="92.6"/>
	</defs>
	<clipPath id="SVGID_6_">
		<use xlink:href="#SVGID_5_"  style="overflow:visible;"/>
	</clipPath>
	<rect x="13.2" y="34.5" class="st5" width="187.7" height="189.1"/>
</g>
<g>
	<defs>
		<circle id="SVGID_7_" cx="108.3" cy="131" r="92.6"/>
	</defs>
	<clipPath id="SVGID_8_">
		<use xlink:href="#SVGID_7_"  style="overflow:visible;"/>
	</clipPath>
	<rect x="51.4" y="93" class="st6" width="113.1" height="9.5"/>
</g>
<g>
	<defs>
		<circle id="SVGID_9_" cx="108.3" cy="131" r="92.6"/>
	</defs>
	<clipPath id="SVGID_10_">
		<use xlink:href="#SVGID_9_"  style="overflow:visible;"/>
	</clipPath>
	<rect x="51.1" y="121.2" class="st7" width="47.5" height="9.5"/>
</g>
<g>
	<defs>
		<circle id="SVGID_11_" cx="108.3" cy="131" r="92.6"/>
	</defs>
	<clipPath id="SVGID_12_">
		<use xlink:href="#SVGID_11_"  style="overflow:visible;"/>
	</clipPath>
	<rect x="51.4" y="186.2" class="st8" width="30.2" height="9.5"/>
</g>
<g>
	<defs>
		<circle id="SVGID_13_" cx="108.3" cy="131" r="92.6"/>
	</defs>
	<clipPath id="SVGID_14_">
		<use xlink:href="#SVGID_13_"  style="overflow:visible;"/>
	</clipPath>
	<rect x="132.7" y="186.2" class="st9" width="32.4" height="9.5"/>
</g>
<g>
	<defs>
		<circle id="SVGID_15_" cx="108.3" cy="131" r="92.6"/>
	</defs>
	<clipPath id="SVGID_16_">
		<use xlink:href="#SVGID_15_"  style="overflow:visible;"/>
	</clipPath>
	<rect x="51.4" y="113.8" class="st10" width="47.2" height="9.5"/>
</g>
<g>
	<defs>
		<circle id="SVGID_17_" cx="108.3" cy="131" r="92.6"/>
	</defs>
	<clipPath id="SVGID_18_">
		<use xlink:href="#SVGID_17_"  style="overflow:visible;"/>
	</clipPath>
	<rect x="51.1" y="101.1" class="st11" width="28.2" height="22.2"/>
</g>
<g>
	<defs>
		<circle id="SVGID_19_" cx="108.3" cy="131" r="92.6"/>
	</defs>
	<clipPath id="SVGID_20_">
		<use xlink:href="#SVGID_19_"  style="overflow:visible;"/>
	</clipPath>
	<rect x="74.8" y="101.1" class="st12" width="23.2" height="29.2"/>
</g>
<g>
	<defs>
		<circle id="SVGID_21_" cx="108.3" cy="131" r="92.6"/>
	</defs>
	<clipPath id="SVGID_22_">
		<use xlink:href="#SVGID_21_"  style="overflow:visible;"/>
	</clipPath>
	<rect x="135.8" y="101.1" class="st13" width="24" height="29.2"/>
</g>
<g>
	<defs>
		<circle id="SVGID_23_" cx="108.3" cy="131" r="92.6"/>
	</defs>
	<clipPath id="SVGID_24_">
		<use xlink:href="#SVGID_23_"  style="overflow:visible;"/>
	</clipPath>
	<rect x="154.6" y="93.1" class="st14" width="9.9" height="37.3"/>
</g>
<g>
	<defs>
		<circle id="SVGID_25_" cx="108.3" cy="131" r="92.6"/>
	</defs>
	<clipPath id="SVGID_26_">
		<use xlink:href="#SVGID_25_"  style="overflow:visible;"/>
	</clipPath>
	<rect x="116.6" y="101.1" class="st15" width="29" height="29.2"/>
</g>
<g>
	<defs>
		<circle id="SVGID_27_" cx="108.3" cy="131" r="92.6"/>
	</defs>
	<clipPath id="SVGID_28_">
		<use xlink:href="#SVGID_27_"  style="overflow:visible;"/>
	</clipPath>
	<rect x="136.2" y="112.2" class="st16" width="28.1" height="18.1"/>
</g>
<g>
	<defs>
		<circle id="SVGID_29_" cx="108.3" cy="131" r="92.6"/>
	</defs>
	<clipPath id="SVGID_30_">
		<use xlink:href="#SVGID_29_"  style="overflow:visible;"/>
	</clipPath>
	<rect x="88.9" y="149.8" class="st17" width="36.9" height="8.7"/>
</g>
<g>
	<defs>
		<circle id="SVGID_31_" cx="108.3" cy="131" r="92.6"/>
	</defs>
	<clipPath id="SVGID_32_">
		<use xlink:href="#SVGID_31_"  style="overflow:visible;"/>
	</clipPath>
	<rect x="42.1" y="95.1" class="st18" width="122.4" height="7.5"/>
</g>
<g>
	<defs>
		<circle id="SVGID_33_" cx="108.3" cy="131" r="92.6"/>
	</defs>
	<clipPath id="SVGID_34_">
		<use xlink:href="#SVGID_33_"  style="overflow:visible;"/>
	</clipPath>
	<rect x="123.8" y="101.1" class="st19" width="33" height="22.3"/>
</g>
<g>
	<defs>
		<circle id="SVGID_35_" cx="108.3" cy="131" r="92.6"/>
	</defs>
	<clipPath id="SVGID_36_">
		<use xlink:href="#SVGID_35_"  style="overflow:visible;"/>
	</clipPath>
	<rect x="42.3" y="195.6" class="st20" width="45.5" height="28"/>
</g>
<g>
	<defs>
		<circle id="SVGID_37_" cx="108.3" cy="131" r="92.6"/>
	</defs>
	<clipPath id="SVGID_38_">
		<use xlink:href="#SVGID_37_"  style="overflow:visible;"/>
	</clipPath>
	<rect x="42.3" y="203.6" class="st21" width="130.9" height="21.9"/>
</g>
<g>
	<defs>
		<circle id="SVGID_39_" cx="108.3" cy="131" r="92.6"/>
	</defs>
	<clipPath id="SVGID_40_">
		<use xlink:href="#SVGID_39_"  style="overflow:visible;"/>
	</clipPath>
	<rect x="126.1" y="195.5" class="st22" width="47.2" height="28.1"/>
</g>
<g>
	<defs>
		<circle id="SVGID_41_" cx="108.3" cy="131" r="92.6"/>
	</defs>
	<clipPath id="SVGID_42_">
		<use xlink:href="#SVGID_41_"  style="overflow:visible;"/>
	</clipPath>
	<rect x="51.1" y="130.3" class="st23" width="113.4" height="10"/>
</g>
<g>
	<defs>
		<circle id="SVGID_43_" cx="108.3" cy="131" r="92.6"/>
	</defs>
	<clipPath id="SVGID_44_">
		<use xlink:href="#SVGID_43_"  style="overflow:visible;"/>
	</clipPath>
	<rect x="58.9" y="101.1" class="st24" width="30.9" height="22.3"/>
</g>
<g>
	<defs>
		<circle id="SVGID_45_" cx="108.3" cy="131" r="92.6"/>
	</defs>
	<clipPath id="SVGID_46_">
		<use xlink:href="#SVGID_45_"  style="overflow:visible;"/>
	</clipPath>
	<rect x="136.5" y="109.9" class="st25" width="7.2" height="6.2"/>
</g>
<g>
	<defs>
		<circle id="SVGID_47_" cx="108.3" cy="131" r="92.6"/>
	</defs>
	<clipPath id="SVGID_48_">
		<use xlink:href="#SVGID_47_"  style="overflow:visible;"/>
	</clipPath>
	<rect x="87.8" y="203.6" class="st26" width="38.2" height="21.9"/>
</g>
<g>
	<defs>
		<circle id="SVGID_49_" cx="108.3" cy="131" r="92.6"/>
	</defs>
	<clipPath id="SVGID_50_">
		<use xlink:href="#SVGID_49_"  style="overflow:visible;"/>
	</clipPath>
	<g class="st27">
		<polygon class="st28" points="164.4,95.1 164.4,83.6 164.4,74.1 155.1,74.1 155.1,65 60.6,65 60.6,74.1 51.1,74.1 51.1,83.6 
			51.1,95.1 51.1,95.3 164.4,95.3 		"/>
		<rect x="97.7" y="102.4" class="st28" width="19" height="36.5"/>
		<polygon class="st28" points="164.5,130.3 146,130.3 146,139.8 136.8,139.8 136.7,139.8 125.2,139.8 125.2,149.9 135.3,149.9 
			135.3,159.3 146,159.3 146.2,159.3 164.5,159.3 164.5,149 164.5,149 		"/>
		<polygon class="st28" points="88.9,149.8 88.9,139.8 79.5,139.8 79.5,138.5 70.1,138.5 70,138.5 60.6,138.5 60.6,139.8 
			51.1,139.8 51.1,149.8 60.6,149.8 60.6,158.8 70,158.8 70,168.3 79.5,168.3 79.5,158.8 79.5,158.6 79.5,149.8 		"/>
		<polygon class="st28" points="134.3,177.5 126.1,177.5 126.1,183.3 95.2,183.3 95.2,177.1 79.6,177.1 79.6,183.3 79.6,183.3 
			79.6,196 81.6,196 87.8,196 87.8,203.6 126,203.6 126,196 134.3,196 134.3,183.3 134.3,183.3 		"/>
	</g>
</g>
<g>
	<defs>
		<circle id="SVGID_51_" cx="108.3" cy="131" r="92.6"/>
	</defs>
	<clipPath id="SVGID_52_">
		<use xlink:href="#SVGID_51_"  style="overflow:visible;"/>
	</clipPath>
	<rect x="88.9" y="158.4" class="st29" width="36.4" height="6.6"/>
</g>
<g>
	<defs>
		<circle id="SVGID_53_" cx="108.3" cy="131" r="92.6"/>
	</defs>
	<clipPath id="SVGID_54_">
		<use xlink:href="#SVGID_53_"  style="overflow:visible;"/>
	</clipPath>
	<rect x="71.5" y="109.9" class="st30" width="7.2" height="6.2"/>
</g>
<g>
	<defs>
		<circle id="SVGID_55_" cx="108.3" cy="131" r="92.6"/>
	</defs>
	<clipPath id="SVGID_56_">
		<use xlink:href="#SVGID_55_"  style="overflow:visible;"/>
	</clipPath>
	<g class="st31">
		<rect x="155.1" y="65" class="st32" width="9.4" height="9.1"/>
		<polygon class="st32" points="51.1,93 51.1,93 51.1,83.6 51.1,78.9 51.1,74.3 60.6,74.3 60.6,65 70,65 79.5,65 79.5,65 88.9,65 
			89,65 98.3,65 98.4,65 107.8,65 107.8,65 117.2,65 117.3,65 126.7,65 126.7,65 136.1,65 136.2,65 145.6,65 145.6,65 154.6,65 
			155.1,65 155.1,55.5 154.6,55.5 145.6,55.5 145.6,55.5 136.2,55.5 136.2,49.5 126.7,49.5 126.7,49.5 117.3,49.5 117.2,49.5 
			107.8,49.5 107.8,49.5 98.4,49.5 98.3,49.5 89,49.5 88.9,49.5 79.5,49.5 79.5,55.5 70,55.5 60.6,55.5 60.6,65 51.1,65 51.1,74.1 
			41.9,74.1 41.9,78.9 41.9,83.6 41.9,93 41.9,93.1 41.9,102.5 51.1,102.5 		"/>
		<polygon class="st32" points="164.4,93 164.4,93.1 164.4,102.2 164.4,102.5 173.9,102.5 173.9,102.2 173.9,93.1 173.9,93 
			173.9,83.6 173.9,74.1 164.4,74.1 164.4,83.6 		"/>
		<path class="st32" d="M164.5,130.3v19.4h-9.8v9h-19.4v-9h-10v-9.4H88.8v9.4h-9.5v9H60.6v-9h-9.5v-19.5h-9.2v29H50v9h20v9.3h17.9
			v7.1h38.2v-7.1h19.1v-9.3h19.4v-9h9.5v-28.9H164.5z M125.2,164.4H88.9v-14.5h36.4L125.2,164.4L125.2,164.4z"/>
	</g>
</g>
<g class="st33">
	
		<image style="overflow:visible;opacity:0.8;enable-background:new    ;" width="475" height="192" xlink:href="BFAAC0C4997A1FAB.png"  transform="matrix(0.2395 0 0 0.23 47.148 7.8624)">
	</image>
	<polygon class="st0" points="102.7,44.3 51.6,48 54,43.9 51.1,41.5 53.3,38.5 50.4,35.7 53.4,32.4 50,29.8 53,26.4 49.6,24.3 
		52.5,21.5 49.1,17.6 100.2,13.7 103.3,13.5 154.3,9.9 152,14 154.8,16.3 152.7,19.3 155.5,22.1 152.5,25.4 155.9,28.1 152.9,31.4 
		156.3,33.5 153.5,36.4 156.8,40.3 105.7,44.1 	"/>
</g>
<polygon class="st34" points="102.7,44.3 51.6,48 54,43.9 51.1,41.5 53.3,38.5 50.4,35.7 53.4,32.4 50,29.8 53,26.4 49.6,24.3 
	52.5,21.5 49.1,17.6 100.2,13.7 103.3,13.5 154.3,9.9 152,14 154.8,16.3 152.7,19.3 155.5,22.1 152.5,25.4 155.9,28.1 152.9,31.4 
	156.3,33.5 153.5,36.4 156.8,40.3 105.7,44.1 "/>
<rect x="38.6" y="101.1" class="st28" width="12.5" height="29.2"/>
<rect x="164.5" y="101.1" class="st28" width="12.5" height="29.2"/>
</svg>
